<?xml version="1.0" standalone="no"?>
<!DOCTYPE svg PUBLIC "-//W3C//DTD SVG 20010904//EN"
 "http://www.w3.org/TR/2001/REC-SVG-20010904/DTD/svg10.dtd">
<svg version="1.0" xmlns="http://www.w3.org/2000/svg"
 width="1768.000000pt" height="1622.000000pt" viewBox="0 0 1768.000000 1622.000000"
 preserveAspectRatio="xMidYMid meet">

<g transform="translate(0.000000,1622.000000) scale(0.100000,-0.100000)"
fill="#000000" stroke="none">
<path d="M7485 13145 c-244 -39 -428 -126 -561 -268 -110 -116 -163 -250 -164
-409 0 -79 17 -74 -160 -53 -135 16 -377 20 -425 7 -16 -4 -34 -18 -40 -30
-10 -22 -13 -22 -220 -22 -664 1 -1524 -13 -1890 -31 -235 -11 -228 -9 -239
-87 -17 -134 -26 -657 -17 -1087 18 -812 21 -1070 27 -2140 l5 -1050 -61 114
c-133 249 -246 400 -535 716 -55 61 -133 149 -174 198 -40 48 -81 87 -90 87
-21 0 -31 -56 -61 -340 -14 -135 -18 -243 -17 -471 l2 -295 -75 54 c-278 200
-651 390 -986 502 -145 49 -144 51 -115 -107 111 -604 355 -1137 738 -1618 48
-60 162 -185 254 -277 92 -93 166 -168 165 -169 0 0 -28 -2 -61 -5 -92 -8
-172 -30 -260 -73 l-80 -40 -145 85 c-182 107 -487 260 -693 347 -159 68 -192
77 -199 55 -6 -16 27 -265 53 -403 135 -727 475 -1459 938 -2020 36 -44 72
-88 79 -97 11 -14 1 -13 -75 8 -139 38 -374 81 -543 100 -225 24 -587 15 -796
-20 -155 -26 -374 -79 -478 -115 -33 -12 -71 -21 -86 -21 -16 0 -30 -7 -34
-15 -3 -8 -12 -15 -21 -15 -8 0 -15 -5 -15 -10 0 -7 13 -9 33 -5 57 10 333
-155 817 -490 129 -90 298 -203 375 -251 170 -107 427 -239 557 -285 l96 -34
-35 -38 c-178 -198 -192 -427 -30 -503 154 -71 371 11 576 220 47 47 86 84 88
82 2 -2 -6 -25 -18 -52 -34 -81 -76 -262 -88 -379 -28 -277 51 -474 217 -547
67 -29 161 -35 216 -14 160 61 268 348 270 716 l1 155 32 -73 c47 -108 128
-233 211 -322 l72 -78 0 -100 c0 -54 3 -134 7 -177 6 -75 7 -78 38 -91 76 -32
1414 -44 2690 -24 330 5 1597 12 2815 16 1761 5 2218 9 2230 19 8 7 29 16 46
19 64 14 76 50 95 281 11 138 7 778 -6 1060 -5 110 -12 434 -25 1185 -5 316
-12 701 -15 855 -10 522 -18 3205 -10 3205 8 0 376 -169 384 -176 2 -1 -2 -26
-9 -53 -19 -80 -15 -187 9 -252 26 -69 97 -140 174 -173 128 -57 422 -107 709
-122 70 -4 131 -10 136 -13 5 -3 13 -85 16 -181 9 -257 24 -726 31 -955 3
-110 7 -258 10 -330 9 -244 16 -507 35 -1320 15 -598 34 -1086 56 -1400 14
-203 56 -682 69 -792 22 -178 31 -159 -82 -168 -54 -4 -111 -13 -128 -20 -16
-7 -51 -16 -77 -20 -27 -3 -48 -11 -48 -16 0 -5 -11 -7 -24 -3 -33 8 -106 -14
-134 -39 -64 -59 -87 -186 -49 -271 l17 -39 368 7 c928 16 1090 17 1437 7 446
-13 410 -24 410 127 0 83 -4 104 -25 146 -14 28 -32 53 -40 57 -8 4 -34 16
-57 28 -23 11 -57 23 -76 26 -20 4 -43 16 -53 26 -9 10 -23 19 -30 19 -7 0
-34 11 -61 25 -54 29 -97 26 -132 -7 -21 -19 -21 -19 -33 9 -17 38 -18 248 -3
683 14 376 24 689 40 1185 2 83 7 222 10 310 3 88 12 365 20 615 8 250 17 500
20 555 3 55 7 159 10 230 24 587 44 966 50 973 1 1 78 -32 171 -74 93 -42 203
-91 244 -109 445 -195 616 -277 638 -305 33 -42 78 -63 119 -57 30 5 34 3 47
-28 19 -44 41 -55 112 -53 52 2 70 -4 149 -44 109 -55 155 -70 205 -70 84 1
138 55 217 217 63 129 77 203 48 252 -23 40 -93 85 -192 125 -46 18 -83 38
-83 45 0 23 -61 82 -96 93 -19 7 -47 9 -62 5 -23 -6 -32 -1 -58 30 -37 45 -94
60 -145 38 -31 -13 -39 -10 -328 121 -163 74 -334 151 -381 171 -47 21 -86 39
-88 40 -5 5 155 319 225 442 95 169 161 275 264 429 115 172 160 264 168 349
15 146 -26 227 -214 423 -152 158 -313 301 -552 493 -291 233 -426 312 -607
355 -204 49 -255 64 -299 84 -42 20 -45 24 -50 69 -9 78 8 173 35 194 71 54
103 84 140 130 22 28 53 58 69 65 74 36 139 136 139 214 0 24 8 50 21 67 33
44 36 110 9 166 l-23 47 33 86 c18 48 36 114 39 147 20 195 -69 355 -198 355
-39 0 -40 1 -46 38 -11 64 -37 112 -87 157 -63 56 -130 79 -228 78 -78 -1 -97
-6 -355 -97 -191 -67 -277 -63 -384 18 -23 17 -38 23 -45 16 -15 -15 -20 -125
-7 -176 7 -26 10 -49 7 -51 -3 -3 -27 7 -55 22 -27 15 -57 25 -65 22 -20 -8
-22 -101 -2 -175 14 -55 12 -58 -30 -42 -21 8 -31 8 -42 -3 -12 -13 -12 -23 2
-77 31 -120 111 -232 213 -297 62 -40 62 -35 33 -208 -29 -176 -27 -238 10
-312 37 -75 125 -160 207 -202 68 -34 68 -33 79 -162 l6 -76 -37 -30 c-45 -37
-112 -57 -268 -78 -131 -18 -190 -37 -275 -91 -185 -119 -351 -354 -602 -854
-61 -121 -116 -220 -121 -220 -6 0 -134 56 -286 125 -151 69 -280 125 -285
125 -11 0 -5 623 13 1275 5 193 12 702 16 1132 6 842 8 820 -44 810 -17 -3
-23 0 -23 14 0 10 -4 20 -8 23 -10 6 -131 14 -307 21 -77 3 -214 8 -305 12
-205 8 -1179 8 -1315 0 -55 -4 -157 -9 -227 -13 l-128 -7 0 46 c0 70 26 67
-323 37 -337 -28 -302 -34 -321 53 -72 317 -382 560 -798 621 -124 19 -320 19
-433 1z m538 -98 c195 -52 324 -123 444 -244 86 -87 142 -192 174 -325 l21
-88 152 0 c83 0 215 7 294 16 203 24 186 53 178 -311 -3 -159 -9 -350 -12
-423 l-7 -133 -256 7 c-141 4 -831 8 -1533 8 l-1278 1 -9 25 c-10 31 -2 686
10 717 5 13 23 32 41 44 27 17 43 19 88 14 30 -3 141 -10 245 -14 232 -11 245
-7 245 68 0 67 34 191 72 264 21 41 63 93 122 152 74 73 109 99 183 137 180
92 312 119 553 114 149 -3 190 -7 273 -29z m2667 -761 c0 -11 -19 -15 -25 -6
-3 5 1 10 9 10 9 0 16 -2 16 -4z m-470 -98 c0 -4 -6 -5 -14 -2 -8 3 -12 12 -9
21 5 12 7 12 14 1 5 -7 9 -16 9 -20z m-5916 -109 c-7 -11 -54 -12 -54 -1 0 15
10 19 35 14 14 -2 22 -8 19 -13z m7124 9 c-2 -6 -10 -14 -16 -16 -7 -2 -10 2
-6 12 7 18 28 22 22 4z m-6461 -154 c-3 -3 -12 -4 -19 -1 -8 3 -5 6 6 6 11 1
17 -2 13 -5z m1150 -171 c-7 -157 4 -205 53 -244 l35 -29 375 -10 c206 -5 893
-13 1525 -16 l1150 -7 43 23 c23 12 42 29 43 39 3 118 18 363 21 367 3 2 67
-3 144 -11 360 -38 887 -53 1382 -38 l272 8 0 -565 c0 -311 4 -783 10 -1050 5
-267 11 -592 13 -723 l3 -239 -45 8 c-173 27 -418 60 -428 57 -32 -12 -20 -40
62 -149 110 -145 230 -279 333 -374 l82 -75 5 -1670 c3 -918 7 -2347 10 -3175
l5 -1506 -133 0 c-72 1 -384 -6 -692 -14 -726 -19 -3259 -21 -3820 -2 -445 14
-1292 38 -1721 48 l-302 6 -11 56 c-17 88 -76 195 -141 260 -54 53 -58 61 -62
110 l-3 53 95 32 c277 94 434 259 471 496 26 171 -54 332 -200 399 -46 21 -70
26 -136 25 -68 0 -163 -17 -219 -39 -19 -7 -24 320 -31 1816 -3 646 -7 1546
-10 2000 -3 454 -7 1214 -10 1690 -3 476 -8 1245 -11 1709 l-7 844 83 -7 c345
-29 937 -25 1485 8 116 7 228 14 249 15 l39 1 -6 -127z m5273 -76 c0 -8 -7
-14 -15 -14 -8 0 -15 6 -15 14 0 7 7 13 15 13 8 0 15 -6 15 -13z m2580 -142
c-12 -15 -30 -12 -30 6 0 5 10 9 21 9 18 0 19 -2 9 -15z m-175 -75 c-3 -5 -12
-10 -18 -10 -7 0 -6 4 3 10 19 12 23 12 15 0z m319 -125 c60 -8 113 -18 117
-22 9 -10 56 -246 64 -325 8 -69 28 -77 52 -20 30 73 65 91 103 50 28 -30 28
-106 -1 -142 -16 -20 -29 -26 -58 -26 -44 0 -54 -14 -71 -99 -36 -180 -198
-346 -386 -396 -69 -18 -222 -20 -292 -4 -73 17 -188 77 -242 126 -28 25 -61
68 -77 101 -25 50 -28 68 -27 147 1 50 8 131 17 180 18 94 21 266 8 347 -10
59 -40 52 379 88 143 12 300 10 414 -5z m-2664 -229 c0 -3 -4 -8 -10 -11 -5
-3 -10 -1 -10 4 0 6 5 11 10 11 6 0 10 -2 10 -4z m2592 -803 c-8 -44 -9 -127
-2 -163 4 -21 -2 -28 -45 -52 -102 -55 -233 -58 -350 -8 -39 17 -45 23 -40 43
5 20 -7 125 -22 184 l-5 23 43 -17 c69 -26 286 -24 359 4 72 28 70 29 62 -14z
m-9891 -526 c-10 -9 -11 -8 -5 6 3 10 9 15 12 12 3 -3 0 -11 -7 -18z m11260
-499 c181 -161 291 -278 324 -343 25 -51 30 -72 30 -135 0 -95 -28 -157 -148
-325 -103 -145 -208 -313 -309 -495 -73 -131 -198 -384 -198 -399 0 -4 -8 -18
-19 -30 -12 -14 -21 -45 -25 -89 -14 -139 -56 -239 -119 -284 l-32 -23 28 34
c32 39 77 123 77 146 0 32 -30 13 -50 -32 -38 -87 -73 -123 -135 -137 l-30 -8
37 36 c64 62 119 176 86 176 -8 0 -23 -19 -34 -42 -40 -90 -100 -148 -153
-148 -34 0 -28 22 20 70 62 62 125 158 112 171 -6 6 -26 -15 -59 -62 -54 -78
-117 -139 -146 -139 -10 0 -18 3 -18 6 0 4 29 51 65 105 35 54 71 112 79 127
l15 29 -47 7 c-75 10 -164 38 -154 48 5 5 66 9 135 9 113 -1 128 1 136 18 6
10 80 227 166 481 85 254 172 499 194 544 49 103 116 193 183 246 29 23 55 46
56 51 8 20 -36 7 -90 -26 l-57 -35 -148 72 c-81 40 -150 74 -152 75 -2 2 24
31 58 65 34 34 80 88 102 120 42 61 99 174 99 196 0 23 18 11 121 -80z m-4129
-98 c221 -35 238 -40 238 -73 0 -32 -18 -47 -60 -47 -24 0 -39 -6 -47 -19 -11
-17 -8 -24 27 -51 77 -61 40 -114 -63 -93 -29 6 -56 7 -60 3 -5 -4 5 -27 22
-50 17 -24 31 -54 31 -67 0 -34 -34 -63 -74 -63 -31 0 -46 14 -192 176 -88 97
-159 179 -158 183 0 3 9 8 20 10 35 6 71 40 88 81 9 22 20 40 25 40 6 0 97
-14 203 -30z m315 -65 c12 -8 169 -89 350 -179 302 -151 379 -188 548 -266 33
-15 94 -43 135 -63 41 -19 217 -99 390 -177 173 -78 599 -270 945 -427 740
-334 698 -316 802 -348 77 -24 82 -27 74 -48 -8 -19 -14 -21 -47 -17 -22 3
-73 5 -115 5 -62 0 -81 -4 -98 -19 -26 -23 -28 -63 -3 -70 24 -7 131 -25 166
-28 l29 -3 -41 -48 c-39 -44 -100 -140 -115 -179 -8 -22 -5 -23 -332 125 -126
57 -344 154 -482 217 -226 101 -279 130 -241 130 34 0 65 68 38 85 -5 3 -10
17 -10 30 0 13 -11 32 -23 42 -13 10 -29 29 -36 41 -7 13 -25 25 -41 28 -20 5
-32 15 -39 35 -12 34 -43 44 -111 36 -40 -5 -170 -43 -240 -71 -13 -5 -15 5
-15 61 0 95 -9 123 -41 123 -14 0 -34 -5 -46 -11 -24 -13 -48 -67 -48 -109 0
-16 -2 -30 -3 -30 -2 0 -78 34 -168 76 -537 248 -1030 467 -1361 604 l-78 32
29 24 c34 29 45 66 32 111 -9 31 -9 31 22 27 44 -7 93 25 102 66 6 25 2 39
-16 63 -17 24 -19 32 -9 35 29 10 60 52 60 82 0 34 6 37 37 15z m3169 -74 c93
-86 154 -119 196 -103 26 10 35 7 81 -22 29 -18 94 -54 145 -80 50 -26 92 -50
92 -53 0 -2 -14 -25 -31 -49 -17 -25 -47 -80 -66 -122 -42 -91 -165 -436 -255
-714 -46 -144 -67 -198 -78 -197 -8 0 -53 13 -100 28 l-85 27 4 234 c2 129 4
258 6 285 2 28 3 227 4 443 0 215 4 392 7 392 3 0 39 -31 80 -69z m-2231 -58
c55 -42 163 -100 248 -134 40 -16 71 -33 69 -40 -4 -17 -123 -169 -132 -169
-5 0 -91 39 -192 86 -100 47 -193 90 -206 95 l-24 9 48 88 c25 48 56 102 67
120 l20 33 31 -29 c17 -15 49 -42 71 -59z m1321 76 c3 -6 0 -15 -7 -20 -22
-14 -29 -11 -29 11 0 21 24 27 36 9z m-656 -99 c0 -5 -4 -10 -10 -10 -5 0 -10
5 -10 10 0 6 5 10 10 10 6 0 10 -4 10 -10z m-10009 -220 c81 -91 178 -201 214
-245 101 -120 246 -343 322 -495 l68 -135 6 -215 c9 -290 10 -625 3 -644 -3
-9 -16 -16 -29 -16 -19 0 -27 13 -55 88 -51 136 -273 707 -440 1132 -194 492
-290 741 -290 749 0 3 12 -7 27 -24 14 -16 92 -104 174 -195z m-131 -85 c51
-132 98 -253 105 -270 7 -16 88 -228 180 -470 154 -405 352 -911 361 -926 2
-4 -21 -19 -51 -33 -65 -32 -126 -99 -163 -178 -15 -32 -30 -58 -33 -58 -3 0
-35 35 -71 78 -257 305 -400 673 -459 1187 -17 141 -17 615 -1 760 20 176 23
193 32 170 4 -11 49 -128 100 -260z m10003 48 c3 -123 3 -223 -1 -223 -3 0
-75 32 -159 72 l-153 72 63 65 c35 36 69 76 76 89 9 17 20 22 51 22 24 0 40 5
40 12 0 11 71 121 75 116 1 -2 5 -103 8 -225z m-11300 -233 c-4 -13 22 -50 83
-121 49 -56 105 -121 124 -143 83 -98 720 -809 835 -932 5 -6 60 -64 121 -130
61 -65 126 -136 144 -157 l33 -38 -29 8 c-16 4 -74 8 -129 8 -88 0 -106 -4
-144 -25 -63 -35 -91 -92 -91 -181 0 -114 62 -231 181 -343 101 -96 69 -81
-47 22 -122 109 -298 295 -399 422 -118 149 -297 417 -298 447 0 7 -3 10 -7 8
-9 -5 -168 322 -215 443 -35 88 -68 186 -71 207 0 6 -6 23 -12 38 -24 57 -112
441 -112 487 0 4 8 6 19 3 12 -3 17 -11 14 -23z m174 -46 c244 -95 610 -288
754 -396 27 -21 49 -35 49 -32 0 3 6 -1 13 -8 8 -7 39 -30 69 -51 l55 -38 12
-82 c42 -282 158 -599 296 -812 22 -33 38 -63 37 -67 -1 -5 2 -8 6 -8 5 0 24
-21 42 -47 18 -27 45 -60 58 -75 14 -16 23 -28 20 -28 -4 0 -91 91 -194 203
-103 111 -210 227 -238 257 -28 30 -101 109 -161 175 -154 168 -192 209 -261
284 -147 158 -223 249 -216 256 4 5 2 5 -4 2 -6 -4 -29 14 -50 40 -22 26 -46
54 -55 62 -23 24 -135 146 -219 240 -41 46 -86 96 -100 111 -43 45 -53 60 -41
60 6 0 64 -21 128 -46z m10411 -248 c386 -174 602 -266 622 -266 23 0 21 -4
25 77 4 72 18 103 46 103 20 0 21 -4 18 -87 l-4 -88 40 2 c22 2 95 18 162 36
67 19 127 31 133 27 40 -25 -50 -90 -125 -90 -44 0 -74 -13 -56 -24 20 -13
173 23 207 49 25 19 58 19 75 -1 21 -26 -14 -46 -125 -73 -66 -16 -94 -27 -88
-33 15 -15 157 8 209 33 43 21 63 19 63 -6 0 -21 -49 -43 -111 -50 -88 -10
-105 -15 -88 -26 25 -16 131 -10 176 11 46 21 68 10 30 -15 -65 -42 -822 1
-1146 65 -213 43 -324 143 -322 289 1 86 19 174 34 167 7 -2 108 -48 225 -100z
m-1013 -516 c-3 -5 -11 -10 -16 -10 -6 0 -7 5 -4 10 3 6 11 10 16 10 6 0 7 -4
4 -10z m3960 -249 c88 -37 258 -107 377 -155 l216 -88 -5 -36 c-27 -204 -78
-319 -166 -377 -27 -17 -27 -17 -466 181 -401 182 -436 199 -403 204 21 3 42
2 48 -2 6 -5 27 -2 46 7 97 40 151 131 173 288 3 26 9 47 13 47 4 0 79 -31
167 -69z m-1695 -11 c0 -5 -4 -10 -9 -10 -6 0 -13 5 -16 10 -3 6 1 10 9 10 9
0 16 -4 16 -10z m-2260 -50 c0 -5 -5 -10 -11 -10 -5 0 -7 5 -4 10 3 6 8 10 11
10 2 0 4 -4 4 -10z m3018 -98 c2 -7 -1 -12 -7 -12 -6 0 -11 4 -11 10 0 5 -8 7
-17 4 -15 -5 -16 -4 -3 5 17 12 32 10 38 -7z m1685 -93 c63 -49 57 -140 -17
-294 -47 -96 -105 -171 -160 -205 -29 -17 -41 -19 -76 -11 -40 9 -80 35 -80
53 0 5 10 12 23 17 91 35 159 160 193 353 9 51 18 96 21 101 9 15 71 6 96 -14z
m153 -64 c43 -18 73 -52 74 -84 0 -34 -56 -196 -92 -264 -43 -80 -109 -151
-160 -171 -56 -23 -115 -13 -131 21 -9 21 -8 26 8 35 11 6 45 36 75 67 83 84
162 259 164 359 0 58 5 61 62 37z m-2881 -25 c-3 -5 -11 -10 -16 -10 -6 0 -7
5 -4 10 3 6 11 10 16 10 6 0 7 -4 4 -10z m3147 -168 c56 -42 72 -76 66 -140
-6 -60 -67 -189 -113 -238 l-35 -37 -83 5 c-55 4 -103 14 -147 32 l-66 26 52
53 c58 61 123 183 154 290 12 40 23 78 25 85 5 15 69 -18 147 -76z m-12652
-450 l0 -499 -21 1 c-30 1 -36 -22 -8 -33 l24 -8 -4 -389 c-1 -214 -4 -391 -6
-393 -8 -8 -75 42 -118 88 -111 119 -144 275 -105 509 2 11 -3 16 -14 14 -11
-2 -18 3 -18 13 0 9 -6 15 -12 13 -9 -3 -15 -40 -20 -112 -12 -201 -60 -368
-139 -482 -73 -106 -139 -147 -239 -148 -108 -1 -163 47 -195 169 -51 198 32
472 195 636 41 42 83 81 94 86 13 7 16 16 11 32 -8 26 -25 27 -56 3 -111 -86
-351 -162 -515 -162 -197 0 -287 67 -287 216 0 114 63 205 175 253 129 55 347
59 529 10 44 -12 83 -19 86 -15 8 7 17 0 -93 74 -198 135 -314 298 -316 443 0
97 48 139 169 147 193 12 380 -124 444 -326 15 -46 22 -96 23 -159 0 -50 4
-94 7 -97 17 -17 40 43 64 164 27 134 64 252 93 300 52 84 144 141 240 149 9
1 12 -105 12 -497z m9640 408 c0 -21 -33 -29 -45 -10 -9 15 4 30 26 30 12 0
19 -7 19 -20z m-10015 -170 c10 -11 16 -20 13 -20 -3 0 -13 9 -23 20 -10 11
-16 20 -13 20 3 0 13 -9 23 -20z m-1596 -525 c299 -400 492 -653 646 -846 55
-69 159 -200 230 -290 112 -141 508 -629 553 -682 15 -16 11 -22 -40 -75 -100
-103 -171 -233 -203 -372 -10 -41 -20 -87 -24 -103 -6 -27 -8 -26 -136 93
-636 593 -1086 1352 -1293 2185 -40 159 -84 400 -97 525 l-7 65 96 -130 c53
-71 177 -238 275 -370z m-214 442 c209 -90 507 -243 696 -356 l77 -47 -25 -29
c-48 -59 -63 -100 -63 -172 0 -85 23 -137 80 -186 67 -57 124 -72 270 -72 98
0 146 5 223 24 89 22 99 23 114 8 14 -14 14 -18 -6 -50 -52 -85 -109 -285
-115 -407 -7 -162 41 -267 148 -322 53 -27 160 -22 230 12 76 37 151 118 199
217 l41 86 54 -59 c30 -32 96 -111 147 -174 l94 -115 1 -75 c0 -41 -2 -172 -6
-291 l-7 -216 -54 24 c-90 41 -242 29 -355 -28 -21 -10 -39 -19 -42 -19 -12 0
-1103 1363 -1236 1544 -14 19 -144 189 -289 378 -145 189 -269 349 -275 357
-13 17 -20 19 99 -32z m1806 -39 l-5 -33 -6 35 c-3 20 -10 42 -15 50 -6 10 -2
9 12 -2 15 -14 18 -26 14 -50z m650 -223 c-1 -5 -9 -10 -18 -10 -10 0 -21 -4
-25 -10 -4 -5 -11 -6 -15 -1 -10 10 27 38 45 34 7 -2 13 -7 13 -13z m9859 -75
c0 -5 -7 -10 -15 -10 -8 0 -15 5 -15 10 0 6 7 10 15 10 8 0 15 -4 15 -10z
m-9783 -295 c0 -8 -4 -12 -9 -9 -5 3 -6 10 -3 15 9 13 12 11 12 -6z m-1097
-150 c-7 -9 -15 -13 -19 -10 -3 3 1 10 9 15 21 14 24 12 10 -5z m1104 -70 c-4
-8 -8 -15 -10 -15 -2 0 -4 7 -4 15 0 8 4 15 10 15 5 0 7 -7 4 -15z m9560 -131
c22 -9 20 -31 -4 -37 -16 -4 -20 0 -20 19 0 26 1 27 24 18z m-2300 -69 c-7
-16 -24 -21 -24 -6 0 8 7 13 27 20 1 1 0 -6 -3 -14z m-7879 -185 l7 -35 -20
20 c-15 15 -19 28 -15 49 7 33 17 21 28 -34z m7850 -210 c-3 -5 -13 -10 -21
-10 -8 0 -14 5 -14 10 0 6 9 10 21 10 11 0 17 -4 14 -10z m-7606 -79 c7 -5 12
-14 9 -21 -2 -7 -10 -4 -22 9 -19 21 -12 28 13 12z m9494 -47 c11 -11 -3 -24
-18 -18 -8 4 -12 10 -9 15 6 11 18 12 27 3z m695 -6 c-7 -19 -38 -22 -38 -4 0
10 9 16 21 16 12 0 19 -5 17 -12z m-180 -80 c-6 -18 -28 -21 -28 -4 0 9 7 16
16 16 9 0 14 -5 12 -12z m-478 -238 c0 -5 -4 -10 -10 -10 -5 0 -10 5 -10 10 0
6 5 10 10 10 6 0 10 -4 10 -10z m-1870 -120 c0 -5 -4 -10 -10 -10 -5 0 -10 5
-10 10 0 6 5 10 10 10 6 0 10 -4 10 -10z m2580 -4 c0 -3 -4 -8 -10 -11 -5 -3
-10 -1 -10 4 0 6 5 11 10 11 6 0 10 -2 10 -4z m-10325 -230 c103 -47 185 -166
207 -300 20 -123 -12 -262 -111 -471 -50 -105 -57 -143 -26 -131 12 4 13 2 2
-15 -10 -16 -9 -21 2 -28 10 -7 37 8 95 54 173 134 380 253 531 305 33 12 96
24 140 27 73 5 85 3 131 -20 220 -112 230 -428 19 -641 -105 -107 -289 -193
-458 -215 -89 -11 -236 -7 -300 9 -26 7 -51 10 -54 6 -14 -14 38 -46 99 -61
266 -67 395 -149 469 -300 28 -57 35 -83 38 -148 5 -127 -35 -204 -133 -254
-73 -38 -215 -44 -315 -14 -194 59 -346 212 -472 475 -27 56 -49 107 -49 114
0 6 -4 12 -10 12 -5 0 -10 -4 -10 -9 0 -5 -8 -8 -17 -7 -14 1 -18 -6 -16 -34
10 -253 -1 -369 -53 -532 -57 -177 -138 -272 -253 -297 -144 -31 -268 91 -308
303 -33 175 12 437 121 693 31 75 31 73 5 73 -11 0 -32 -15 -47 -32 -192 -235
-420 -378 -599 -378 -62 0 -113 26 -136 70 -15 28 -17 50 -14 114 12 182 149
344 383 453 89 40 300 113 332 113 12 0 22 6 22 14 0 11 -19 14 -97 12 -200
-5 -432 34 -558 94 -195 93 -249 289 -115 414 96 90 234 127 358 97 139 -35
295 -157 447 -350 44 -56 91 -98 101 -89 2 3 0 42 -4 89 -10 97 0 242 23 332
8 34 36 104 61 156 122 248 381 384 569 297z m10015 -16 c0 -5 -7 -10 -15 -10
-8 0 -15 5 -15 10 0 6 7 10 15 10 8 0 15 -4 15 -10z m-11840 -64 c160 -20 275
-41 419 -76 233 -57 213 -45 421 -251 102 -101 184 -187 183 -190 -1 -4 3 -6
10 -5 7 0 29 -13 49 -30 32 -28 36 -37 40 -90 l4 -59 -72 95 c-39 52 -94 116
-122 142 -52 48 -153 118 -172 118 -5 0 -10 4 -10 8 0 4 -8 8 -17 9 -10 1 -47
9 -83 17 -81 19 -136 20 -221 2 -108 -23 -237 -102 -254 -156 -5 -16 -11 -17
-38 -9 -259 77 -986 252 -1349 325 -49 10 -88 21 -88 25 0 10 229 69 370 94
109 20 230 35 390 49 87 8 426 -4 540 -18z m9577 8 c-3 -3 -12 -4 -19 -1 -8 3
-5 6 6 6 11 1 17 -2 13 -5z m3013 -93 c0 -14 -5 -18 -20 -14 -23 6 -26 19 -7
26 22 9 27 7 27 -12z m-13618 -147 c90 -20 181 -40 203 -44 165 -34 951 -233
962 -244 2 -2 5 -39 6 -82 3 -91 29 -151 99 -222 79 -82 272 -156 441 -169 43
-3 80 -9 82 -13 2 -4 -22 -17 -53 -30 -31 -13 -79 -37 -107 -53 -27 -17 -56
-30 -63 -30 -6 0 -10 -2 -7 -5 2 -3 -14 -18 -36 -34 -39 -28 -42 -29 -72 -15
-18 8 -66 27 -107 42 -108 40 -344 154 -457 221 -151 90 -404 260 -480 324 -7
5 -15 10 -17 10 -3 0 -46 30 -96 66 -111 81 -293 201 -380 250 -83 47 -107 64
-93 64 7 0 85 -16 175 -36z m12582 -48 c-3 -9 -10 -16 -15 -16 -14 0 -11 28 4
33 16 6 19 3 11 -17z m126 -201 c0 -23 -2 -24 -20 -15 -23 12 -26 26 -7 33 23
10 27 7 27 -18z m498 -587 c-6 -18 -28 -21 -28 -4 0 9 7 16 16 16 9 0 14 -5
12 -12z m566 -636 c3 -5 -8 -16 -23 -25 -16 -9 -35 -31 -44 -48 -14 -30 -15
-31 -26 -11 -15 28 -14 35 10 66 20 25 71 37 83 18z m-774 -32 c0 -11 -7 -20
-15 -20 -8 0 -15 9 -15 20 0 11 7 20 15 20 8 0 15 -9 15 -20z m859 -9 c11 -7
7 -16 -22 -44 -21 -19 -37 -42 -37 -51 0 -21 -34 -21 -54 0 -9 8 -16 19 -16
22 0 18 35 55 64 68 37 16 46 17 65 5z m-1388 -32 c24 -12 29 -76 9 -94 -24
-22 -30 -19 -30 15 0 19 -11 42 -32 66 l-32 37 34 -8 c19 -4 42 -11 51 -16z
m-1782 -15 c-15 -18 -22 -13 -13 10 3 9 10 13 16 10 5 -3 4 -12 -3 -20z m1688
-10 c28 -18 40 -59 23 -79 -20 -24 -40 -17 -55 19 -8 19 -26 43 -40 54 -14 11
-25 23 -25 27 0 11 72 -5 97 -21z m1277 -5 c14 -27 84 -78 113 -82 12 -2 34
-16 48 -31 21 -23 32 -27 56 -22 27 5 29 3 29 -25 l0 -30 -72 7 c-40 4 -207 8
-372 8 -173 0 -282 4 -260 9 117 23 342 118 409 171 33 26 33 26 49 -5z m309
11 c6 0 2 -7 -10 -15 -11 -8 -28 -33 -37 -55 -12 -30 -21 -40 -39 -40 -51 0
-61 43 -19 82 28 27 57 38 80 32 8 -2 19 -4 25 -4z m-1687 -35 c50 -32 37 -96
-22 -108 -22 -4 -28 2 -46 40 -11 24 -31 52 -45 62 l-24 20 23 4 c36 8 88 0
114 -18z m1781 -29 c27 -23 28 -29 31 -127 l4 -102 -164 6 c-89 4 -316 10
-503 14 -342 6 -354 8 -355 43 0 13 22 14 162 9 90 -4 285 -7 433 -8 l270 -1
2 61 c2 65 20 104 56 119 32 13 33 12 64 -14z m-1922 -16 c19 -20 34 -52 45
-97 l16 -68 265 0 c145 0 333 3 417 7 148 8 152 7 152 -12 0 -19 -7 -20 -177
-20 -196 0 -544 -14 -752 -30 -96 -8 -137 -8 -145 0 -6 6 -11 42 -11 80 0 79
17 111 81 147 52 30 75 29 109 -7z m461 -24 c38 -19 102 -45 141 -58 40 -13
73 -25 73 -28 0 -3 -69 -6 -153 -7 -127 -2 -250 -7 -396 -16 -40 -3 -35 21 7
32 21 6 46 19 56 30 10 11 25 16 40 14 13 -3 35 3 49 12 15 9 31 14 36 10 13
-7 71 22 71 35 0 14 -2 14 76 -24z"/>
<path d="M7718 12930 c-115 -15 -188 -79 -196 -174 -11 -134 111 -223 251
-182 136 40 203 172 148 292 -33 73 -63 82 -203 64z m102 -65 c36 -19 50 -43
50 -87 0 -80 -83 -144 -174 -135 -140 13 -125 184 19 222 65 18 71 18 105 0z"/>
<path d="M4633 10194 c-13 -21 -15 -31 -6 -55 20 -51 160 -279 247 -400 l83
-116 6 -199 c4 -110 12 -248 18 -309 6 -60 11 -138 11 -172 0 -35 6 -67 12
-72 35 -27 915 -63 1041 -42 39 7 76 16 83 20 34 21 40 142 18 351 -8 74 -22
266 -31 426 l-17 292 71 94 c81 108 90 142 45 177 -50 40 -78 29 -173 -63
l-86 -84 -255 -6 c-604 -15 -677 -25 -713 -100 -9 -17 -18 -40 -22 -50 -4 -15
-19 1 -72 75 -36 52 -91 131 -120 177 -50 76 -57 82 -88 82 -26 0 -39 -6 -52
-26z m1195 -296 c-81 -93 -201 -246 -317 -400 -57 -76 -107 -138 -111 -138
-12 0 -206 210 -286 308 l-67 82 18 48 c23 59 78 116 130 132 35 12 227 21
593 28 l94 2 -54 -62z m211 -326 c1 -95 8 -232 17 -305 18 -144 14 -239 -11
-288 -20 -37 -79 -66 -156 -75 -49 -6 -391 5 -695 22 l-111 6 -6 57 c-3 31
-15 128 -26 216 -21 169 -32 325 -22 324 3 0 43 -44 89 -97 175 -204 244 -272
284 -278 46 -8 19 -35 358 360 l265 309 7 -39 c4 -21 7 -117 7 -212z"/>
<path d="M8390 9810 c-702 -7 -1491 -25 -1577 -36 -46 -6 -63 -28 -38 -53 13
-14 115 -16 873 -20 810 -4 2588 14 2772 28 l85 6 0 35 0 35 -320 6 c-401 8
-870 7 -1795 -1z"/>
<path d="M7880 9458 c-437 -4 -889 -11 -1005 -15 l-210 -8 0 -25 0 -25 180 -8
c99 -4 953 -6 1897 -4 1377 3 1720 6 1733 17 21 17 19 57 -4 70 -23 12 -1358
11 -2591 -2z"/>
<path d="M6860 9011 c-96 -4 -176 -8 -178 -9 -2 -1 -2 -12 0 -24 3 -22 9 -23
103 -29 143 -10 1043 -28 1955 -39 432 -5 1014 -15 1294 -21 540 -12 525 -13
526 33 0 43 -7 44 -481 57 -250 7 -584 17 -744 22 -355 12 -2234 19 -2475 10z"/>
<path d="M6144 8575 c-34 -36 -92 -105 -129 -154 l-68 -88 -271 -7 c-398 -9
-573 -21 -623 -41 -68 -27 -87 -68 -92 -198 -2 -77 -7 -107 -15 -104 -6 3 -60
39 -120 81 -60 42 -112 76 -115 76 -4 0 -17 -7 -29 -16 -46 -32 -31 -54 127
-187 l148 -126 7 -155 c4 -85 13 -215 20 -288 8 -73 11 -147 9 -165 -4 -27 -1
-34 18 -42 39 -16 241 -30 615 -42 311 -10 360 -10 429 4 43 9 80 18 82 21 11
11 23 86 23 146 0 36 -7 126 -14 200 -8 74 -22 267 -31 429 l-17 293 111 164
c71 105 111 172 111 189 0 37 -41 75 -82 75 -27 0 -43 -11 -94 -65z m-263
-343 c-5 -9 -30 -53 -57 -97 -66 -112 -192 -371 -239 -492 -22 -56 -44 -101
-49 -100 -5 2 -121 86 -258 188 l-248 184 5 45 c11 85 45 170 84 209 57 57 96
65 356 71 444 12 417 12 406 -8z m158 -387 c1 -88 8 -225 16 -304 21 -202 6
-280 -65 -316 -52 -27 -159 -35 -322 -25 -84 5 -251 12 -370 16 l-218 6 0 37
c0 20 -9 99 -19 176 -11 77 -23 181 -27 230 -6 77 -5 88 7 79 8 -6 124 -100
258 -208 134 -108 255 -199 268 -202 45 -12 73 23 133 162 85 195 185 384 289
544 l36 55 7 -45 c3 -25 7 -117 7 -205z"/>
<path d="M8180 8100 c-574 -8 -1347 -27 -1386 -35 -28 -6 -36 -28 -20 -50 12
-16 70 -18 817 -23 741 -5 2433 12 2772 27 l142 6 3 30 c3 19 -2 33 -14 42
-14 10 -187 13 -883 11 -476 -1 -1120 -5 -1431 -8z"/>
<path d="M7655 7748 c-346 -4 -711 -11 -810 -15 l-180 -8 0 -25 0 -25 240 -8
c391 -13 3553 -1 3570 13 18 15 19 52 3 68 -14 14 -1767 14 -2823 0z"/>
<path d="M6825 7300 l-140 -5 0 -25 c0 -25 0 -25 125 -31 176 -10 1114 -27
2045 -39 435 -6 989 -15 1233 -21 342 -8 447 -8 458 2 22 18 17 58 -8 69 -21
8 -528 25 -1558 50 -395 10 -1904 10 -2155 0z"/>
<path d="M6076 6766 l-41 -43 -295 -7 c-394 -8 -616 -20 -668 -36 -82 -26
-112 -79 -112 -202 0 -38 -3 -68 -8 -68 -4 0 -38 41 -76 90 -58 77 -73 90 -97
90 -22 0 -32 -7 -41 -26 -14 -30 -17 -24 122 -239 l98 -150 6 -130 c9 -185 26
-375 36 -407 6 -17 5 -28 -1 -28 -13 0 -11 -46 4 -57 36 -29 913 -66 1042 -44
39 7 76 16 83 20 34 21 39 134 17 356 -9 83 -21 258 -29 390 l-13 240 57 85
c31 47 59 93 63 102 16 44 -37 108 -89 108 -10 0 -36 -20 -58 -44z m-134 -142
c16 -8 7 -25 -75 -141 -50 -73 -125 -183 -165 -245 -69 -107 -154 -222 -206
-279 -16 -17 -40 -29 -68 -33 -24 -3 -60 -9 -81 -12 -44 -7 -60 3 -89 59 -11
22 -67 104 -125 181 -103 140 -104 141 -98 186 17 123 57 209 115 244 58 34
96 39 335 46 297 9 435 7 457 -6z m101 -436 c3 -123 10 -261 16 -308 13 -105
5 -181 -23 -223 -46 -68 -129 -82 -401 -68 -110 6 -280 13 -377 17 l-178 6 0
36 c0 20 -9 102 -19 182 -25 181 -28 220 -21 220 3 -1 37 -46 75 -102 39 -55
90 -123 115 -151 136 -152 291 -105 454 139 81 121 339 473 347 474 4 0 9
-100 12 -222z"/>
<path d="M8395 6490 c-705 -7 -1496 -25 -1582 -36 -46 -6 -63 -28 -38 -53 14
-14 115 -16 878 -20 816 -4 2583 14 2767 28 l85 6 0 35 0 35 -330 6 c-413 8
-851 7 -1780 -1z"/>
<path d="M7890 6138 c-443 -4 -899 -11 -1015 -15 l-210 -8 0 -25 0 -25 180 -8
c99 -4 953 -6 1897 -4 1391 3 1720 6 1732 16 19 16 21 52 4 69 -14 14 -1243
14 -2588 0z"/>
<path d="M6860 5691 c-96 -4 -176 -8 -178 -9 -2 -1 -2 -12 0 -24 3 -22 9 -23
103 -29 143 -10 1043 -28 1955 -39 432 -5 1014 -15 1294 -21 540 -12 525 -13
526 33 0 43 -7 44 -476 57 -247 7 -584 17 -749 22 -366 12 -2233 19 -2475 10z"/>
<path d="M5323 5019 c-263 -11 -316 -28 -349 -114 -15 -41 -16 -78 -11 -378 4
-182 13 -390 21 -462 8 -71 13 -141 10 -155 -2 -14 -1 -31 4 -38 16 -24 379
-50 777 -54 238 -3 323 4 355 30 31 26 36 143 16 343 -9 90 -25 309 -35 486
-12 223 -22 327 -31 338 -11 13 -52 15 -299 13 -157 0 -363 -4 -458 -9z m632
-92 c66 -37 76 -82 85 -387 5 -140 13 -297 20 -347 13 -105 2 -191 -28 -233
-11 -14 -42 -33 -73 -44 -52 -18 -71 -18 -429 -7 -206 7 -391 14 -411 18 l-36
5 -6 62 c-3 33 -13 117 -23 186 -23 159 -26 481 -5 555 41 144 98 190 255 203
45 4 200 8 346 9 257 2 267 1 305 -20z"/>
<path d="M7965 4799 c-778 -12 -1178 -27 -1192 -46 -16 -21 -6 -42 26 -50 76
-21 3621 1 3694 23 20 6 24 53 5 72 -14 14 -1699 14 -2533 1z"/>
<path d="M7445 4449 c-286 -5 -578 -12 -650 -16 -130 -8 -130 -8 -130 -33 l0
-25 280 -6 c357 -8 2023 -8 2874 0 717 7 683 3 667 64 l-6 27 -1258 -2 c-691
0 -1491 -5 -1777 -9z"/>
<path d="M7062 4010 c-194 -4 -359 -11 -367 -14 -18 -7 -20 -45 -2 -51 24 -8
899 -26 1992 -40 611 -8 1276 -20 1479 -25 269 -7 373 -7 383 1 17 14 17 53 0
67 -12 10 -540 29 -1462 52 -579 14 -1621 19 -2023 10z"/>
<path d="M13793 11053 c-5 -16 -7 -67 -7 -115 l1 -88 -26 0 c-30 -1 -53 -16
-69 -47 -18 -34 -14 -52 17 -84 36 -36 94 -41 111 -9 9 16 8 22 -5 26 -8 3
-21 4 -27 1 -7 -2 -23 -1 -35 4 -40 15 -23 69 21 69 45 0 50 12 54 144 4 111
2 126 -12 126 -9 0 -19 -12 -23 -27z"/>
<path d="M13483 11010 c-55 -33 -40 -90 23 -90 54 0 83 60 46 93 -24 22 -30
21 -69 -3z"/>
<path d="M14062 11014 c-41 -29 -19 -94 33 -94 30 0 55 25 55 54 0 42 -52 65
-88 40z"/>
<path d="M14386 11011 c-3 -5 1 -14 9 -21 9 -8 13 -21 9 -35 -7 -29 10 -40 30
-19 21 21 20 40 -4 64 -22 22 -36 25 -44 11z"/>
<path d="M13627 10543 c-13 -12 -7 -19 36 -44 59 -33 158 -34 205 -1 33 24 43
52 18 52 -7 0 -30 -7 -49 -15 -46 -19 -134 -19 -167 0 -29 16 -34 17 -43 8z"/>
<path d="M3364 6280 c-60 -10 -104 -89 -90 -164 15 -81 145 -177 242 -177 60
-1 92 11 124 46 21 22 25 37 25 85 0 49 -5 65 -30 101 -53 74 -177 125 -271
109z m152 -61 c97 -50 145 -158 94 -209 -62 -62 -166 -42 -252 47 -63 65 -75
127 -32 170 23 23 31 25 84 21 35 -2 77 -14 106 -29z"/>
<path d="M3245 3403 c-79 -22 -125 -46 -125 -64 0 -11 -5 -30 -11 -41 -18 -33
-14 -120 8 -169 42 -93 139 -149 274 -157 170 -9 279 61 279 179 0 91 -80 189
-189 230 -56 21 -194 34 -236 22z m226 -60 c54 -24 124 -84 145 -124 20 -40
17 -76 -11 -125 -65 -110 -256 -120 -388 -19 -85 65 -113 142 -79 217 17 40
25 46 73 61 74 23 198 18 260 -10z"/>
</g>
</svg>
